<svg width="281" height="567" viewBox="0 0 281 567" fill="none" xmlns="http://www.w3.org/2000/svg">
<path fill-rule="evenodd" clip-rule="evenodd" d="M278.022 130.578H278.675C279.397 130.578 279.982 131.163 279.982 131.883V194.541C279.982 195.262 279.397 195.846 278.675 195.846H278.022V130.578Z" fill="#121515"/>
<path fill-rule="evenodd" clip-rule="evenodd" d="M1 169.739C1 169.018 1.58503 168.434 2.30671 168.434H2.96006V209.552H2.30671C1.58503 209.552 1 208.968 1 208.247V169.739Z" fill="#121515"/>
<path fill-rule="evenodd" clip-rule="evenodd" d="M1 118.177C1 117.456 1.58503 116.872 2.30671 116.872H2.96006V157.991H2.30671C1.58503 157.991 1 157.406 1 156.685V118.177Z" fill="#121515"/>
<path fill-rule="evenodd" clip-rule="evenodd" d="M1 78.3637C1 77.6428 1.58503 77.0583 2.30671 77.0583H2.96006V98.5968H2.30671C1.58503 98.5968 1 98.0124 1 97.2914V78.3637Z" fill="#121515"/>
<g filter="url(#filter0_dd_41_72279)">
<path fill-rule="evenodd" clip-rule="evenodd" d="M2.95996 43.1189C2.95996 20.4096 21.3885 2 44.1212 2H236.86C259.593 2 278.022 20.4096 278.022 43.1189V520.881C278.022 543.59 259.593 562 236.86 562H44.1212C21.3885 562 2.95996 543.59 2.95996 520.881V43.1189Z" fill="#3A4245"/>
</g>
<path fill-rule="evenodd" clip-rule="evenodd" d="M6.22705 43.1189C6.22705 22.2119 23.193 5.26343 44.1215 5.26343H236.861C257.789 5.26343 274.755 22.2119 274.755 43.1189V520.881C274.755 541.788 257.789 558.737 236.861 558.737H44.1215C23.193 558.737 6.22705 541.788 6.22705 520.881V43.1189Z" fill="#121515"/>
<g clip-path="url(#clip0_41_72279)">
<rect x="17.9697" y="17.6121" width="244.364" height="529.455" rx="25.1152" fill="white"/>
<rect x="94.6729" y="538.242" width="90.9576" height="3.39394" rx="1.69697" fill="black"/>
<path d="M236.539 17.6121H43.7637C29.5181 17.6121 17.9697 29.1604 17.9697 43.406V521.273C17.9697 535.518 29.5181 547.067 43.7637 547.067H236.539C250.785 547.067 262.333 535.518 262.333 521.273V43.406C262.333 29.1604 250.785 17.6121 236.539 17.6121Z" fill="white"/>
<path d="M43.7637 17.6121H236.539C243.38 17.6121 249.941 20.3296 254.778 25.1669C259.616 30.0042 262.333 36.565 262.333 43.406V47.4787H17.9697V43.406C17.9697 36.565 20.6873 30.0042 25.5246 25.1669C30.3619 20.3296 36.9227 17.6121 43.7637 17.6121V17.6121Z" fill="white"/>
<path d="M17.9697 523.988H262.333C262.333 530.109 259.902 535.979 255.574 540.307C251.246 544.635 245.375 547.067 239.255 547.067H41.0485C34.9276 547.067 29.0575 544.635 24.7293 540.307C20.4012 535.979 17.9697 530.109 17.9697 523.988V523.988Z" fill="white"/>
<path d="M183.255 538.242H97.0485C96.1113 538.242 95.3516 539.002 95.3516 539.939C95.3516 540.877 96.1113 541.636 97.0485 541.636H183.255C184.192 541.636 184.952 540.877 184.952 539.939C184.952 539.002 184.192 538.242 183.255 538.242Z" fill="#EDEDED"/>
<g clip-path="url(#clip1_41_72279)">
<path d="M65.4849 17.6121H214.139C212.71 18.0212 211.708 19.3058 211.659 20.7918L211.639 21.3873C211.639 30.5488 204.212 37.9757 195.051 37.9757H84.5735C75.412 37.9757 67.9852 30.5488 67.9852 21.3873L67.9655 20.7918C67.9165 19.3058 66.9143 18.0212 65.4849 17.6121Z" fill="#121515"/>
<path opacity="0.35" d="M237.671 29.7175H248.984C249.796 29.7175 250.455 30.376 250.455 31.1882V35.2605C250.455 36.0727 249.796 36.7312 248.984 36.7312H237.671C236.859 36.7312 236.201 36.0727 236.201 35.2605V31.1882C236.201 30.376 236.859 29.7175 237.671 29.7175Z" stroke="black" stroke-width="0.678788"/>
<path opacity="0.4" d="M251.473 31.8667V34.5819C252.019 34.3519 252.375 33.8169 252.375 33.2243C252.375 32.6316 252.019 32.0967 251.473 31.8667Z" fill="black"/>
<path d="M237.218 31.6404C237.218 31.1406 237.623 30.7354 238.123 30.7354H248.531C249.031 30.7354 249.436 31.1406 249.436 31.6404V34.8081C249.436 35.3079 249.031 35.7131 248.531 35.7131H238.123C237.623 35.7131 237.218 35.3079 237.218 34.8081V31.6404Z" fill="black"/>
<path fill-rule="evenodd" clip-rule="evenodd" d="M227.261 30.9218C228.765 30.9219 230.212 31.4998 231.302 32.5362C231.384 32.6162 231.515 32.6152 231.596 32.5339L232.38 31.742C232.421 31.7008 232.444 31.645 232.444 31.5869C232.444 31.5288 232.42 31.4732 232.379 31.4325C229.517 28.6905 225.004 28.6905 222.142 31.4325C222.101 31.4732 222.078 31.5287 222.077 31.5868C222.077 31.6449 222.1 31.7008 222.14 31.742L222.925 32.5339C223.006 32.6153 223.137 32.6163 223.22 32.5362C224.31 31.4997 225.757 30.9218 227.261 30.9218ZM227.261 33.4981C228.087 33.4981 228.884 33.8052 229.497 34.3599C229.58 34.4387 229.71 34.437 229.791 34.3561L230.575 33.5642C230.616 33.5226 230.639 33.4663 230.638 33.4077C230.638 33.3492 230.614 33.2933 230.571 33.2526C228.706 31.5174 225.817 31.5174 223.952 33.2526C223.91 33.2933 223.886 33.3492 223.885 33.4078C223.884 33.4664 223.907 33.5227 223.949 33.5642L224.732 34.3561C224.813 34.437 224.944 34.4387 225.026 34.3599C225.639 33.8056 226.435 33.4985 227.261 33.4981ZM228.831 35.2316C228.832 35.2903 228.809 35.3469 228.767 35.3881L227.411 36.7563C227.371 36.7965 227.317 36.8191 227.261 36.8191C227.204 36.8191 227.15 36.7965 227.11 36.7563L225.754 35.3881C225.712 35.3469 225.689 35.2903 225.691 35.2316C225.692 35.1728 225.717 35.1172 225.761 35.0779C226.627 34.3455 227.895 34.3455 228.761 35.0779C228.804 35.1173 228.83 35.1729 228.831 35.2316Z" fill="black"/>
<path fill-rule="evenodd" clip-rule="evenodd" d="M217.986 29.604H217.307C216.932 29.604 216.629 29.9079 216.629 30.2828V36.1656C216.629 36.5405 216.932 36.8444 217.307 36.8444H217.986C218.361 36.8444 218.665 36.5405 218.665 36.1656V30.2828C218.665 29.9079 218.361 29.604 217.986 29.604ZM214.14 31.1878H214.818C215.193 31.1878 215.497 31.4917 215.497 31.8666V36.1656C215.497 36.5404 215.193 36.8444 214.818 36.8444H214.14C213.765 36.8444 213.461 36.5404 213.461 36.1656V31.8666C213.461 31.4917 213.765 31.1878 214.14 31.1878ZM211.651 32.7717H210.972C210.597 32.7717 210.293 33.0756 210.293 33.4505V36.1657C210.293 36.5406 210.597 36.8445 210.972 36.8445H211.651C212.026 36.8445 212.33 36.5406 212.33 36.1657V33.4505C212.33 33.0756 212.026 32.7717 211.651 32.7717ZM208.483 34.1293H207.804C207.429 34.1293 207.125 34.4332 207.125 34.8081V36.1657C207.125 36.5406 207.429 36.8445 207.804 36.8445H208.483C208.858 36.8445 209.162 36.5406 209.162 36.1657V34.8081C209.162 34.4332 208.858 34.1293 208.483 34.1293Z" fill="black"/>
<path d="M43.3022 36.7921C45.1268 36.7921 46.2106 35.3653 46.2106 32.9491C46.2106 32.0393 46.0366 31.2737 45.7035 30.682C45.2213 29.7623 44.391 29.2651 43.342 29.2651C41.7809 29.2651 40.6772 30.3141 40.6772 31.7857C40.6772 33.1678 41.6716 34.1721 43.0388 34.1721C43.879 34.1721 44.5601 33.7793 44.8981 33.0982H44.913C44.913 33.0982 44.9329 33.0982 44.9379 33.0982C44.9478 33.0982 44.9826 33.0982 44.9826 33.0982C44.9826 34.7389 44.3612 35.7183 43.3122 35.7183C42.6957 35.7183 42.2184 35.3802 42.0544 34.8383H40.7767C40.9905 36.0166 41.9897 36.7921 43.3022 36.7921ZM43.347 33.1529C42.5217 33.1529 41.9351 32.5663 41.9351 31.746C41.9351 30.9455 42.5515 30.334 43.352 30.334C44.1524 30.334 44.7689 30.9555 44.7689 31.7658C44.7689 32.5663 44.1673 33.1529 43.347 33.1529Z" fill="black"/>
<path d="M48.3088 36.7225C48.7811 36.7225 49.1043 36.3845 49.1043 35.937C49.1043 35.4846 48.7811 35.1515 48.3088 35.1515C47.8415 35.1515 47.5134 35.4846 47.5134 35.937C47.5134 36.3845 47.8415 36.7225 48.3088 36.7225ZM48.3088 32.9938C48.7811 32.9938 49.1043 32.6607 49.1043 32.2133C49.1043 31.7609 48.7811 31.4278 48.3088 31.4278C47.8415 31.4278 47.5134 31.7609 47.5134 32.2133C47.5134 32.6607 47.8415 32.9938 48.3088 32.9938Z" fill="black"/>
<path d="M53.7579 36.6181H54.9859V35.2808H55.9553V34.197H54.9859V29.4441H53.1762C51.9085 31.3532 50.8992 32.9491 50.2529 34.1373V35.2808H53.7579V36.6181ZM51.4411 34.1522C52.2764 32.6806 53.0221 31.5024 53.7082 30.4881H53.7778V34.2268H51.4411V34.1522Z" fill="black"/>
<path d="M58.6899 36.6181H59.9726V29.4441H58.6949L56.8206 30.7566V31.9896L58.6054 30.7367H58.6899V36.6181Z" fill="black"/>
</g>
<path fill-rule="evenodd" clip-rule="evenodd" d="M170.219 28.1072C173.105 28.1072 175.445 25.7695 175.445 22.8858C175.445 20.002 173.105 17.6643 170.219 17.6643C167.332 17.6643 164.992 20.002 164.992 22.8858C164.992 25.7695 167.332 28.1072 170.219 28.1072Z" fill="#262C2D"/>
<path fill-rule="evenodd" clip-rule="evenodd" d="M170.218 26.1491C172.023 26.1491 173.485 24.688 173.485 22.8857C173.485 21.0834 172.023 19.6223 170.218 19.6223C168.414 19.6223 166.952 21.0834 166.952 22.8857C166.952 24.688 168.414 26.1491 170.218 26.1491Z" fill="#121515"/>
<path opacity="0.4" fill-rule="evenodd" clip-rule="evenodd" d="M170.218 22.2331C170.579 22.2331 170.872 21.9409 170.872 21.5804C170.872 21.2199 170.579 20.9277 170.218 20.9277C169.857 20.9277 169.565 21.2199 169.565 21.5804C169.565 21.9409 169.857 22.2331 170.218 22.2331Z" fill="#636F73"/>
<path fill-rule="evenodd" clip-rule="evenodd" d="M123.831 22.8858C123.831 21.8044 124.707 20.9277 125.789 20.9277H155.194C156.275 20.9277 157.152 21.8044 157.152 22.8858C157.152 23.9672 156.275 24.8438 155.194 24.8438H125.789C124.707 24.8438 123.831 23.9672 123.831 22.8858Z" fill="#262C2D"/>
</g>
<defs>
<filter id="filter0_dd_41_72279" x="0.244809" y="0.642424" width="280.492" height="565.43" filterUnits="userSpaceOnUse" color-interpolation-filters="sRGB">
<feFlood flood-opacity="0" result="BackgroundImageFix"/>
<feColorMatrix in="SourceAlpha" type="matrix" values="0 0 0 0 0 0 0 0 0 0 0 0 0 0 0 0 0 0 127 0" result="hardAlpha"/>
<feOffset/>
<feGaussianBlur stdDeviation="0.678788"/>
<feColorMatrix type="matrix" values="0 0 0 0 0 0 0 0 0 0.0823529 0 0 0 0 0.25098 0 0 0 0.14 0"/>
<feBlend mode="normal" in2="BackgroundImageFix" result="effect1_dropShadow_41_72279"/>
<feColorMatrix in="SourceAlpha" type="matrix" values="0 0 0 0 0 0 0 0 0 0 0 0 0 0 0 0 0 0 127 0" result="hardAlpha"/>
<feOffset dy="1.35758"/>
<feGaussianBlur stdDeviation="1.35758"/>
<feColorMatrix type="matrix" values="0 0 0 0 0 0 0 0 0 0.0823529 0 0 0 0 0.25098 0 0 0 0.05 0"/>
<feBlend mode="normal" in2="effect1_dropShadow_41_72279" result="effect2_dropShadow_41_72279"/>
<feBlend mode="normal" in="SourceGraphic" in2="effect2_dropShadow_41_72279" result="shape"/>
</filter>
<clipPath id="clip0_41_72279">
<rect x="17.9697" y="17.6121" width="244.364" height="529.455" rx="25.1152" fill="white"/>
</clipPath>
<clipPath id="clip1_41_72279">
<rect width="244.364" height="29.8667" fill="white" transform="translate(17.9697 17.6121)"/>
</clipPath>
</defs>
</svg>
